<?xml version="1.0" standalone="no"?><!DOCTYPE svg PUBLIC "-//W3C//DTD SVG 1.1//EN" "http://www.w3.org/Graphics/SVG/1.1/DTD/svg11.dtd"><svg t="1609581326417" class="icon" viewBox="0 0 1024 1024" version="1.1" xmlns="http://www.w3.org/2000/svg" p-id="6450" xmlns:xlink="http://www.w3.org/1999/xlink" width="200" height="200"><defs><style type="text/css"></style></defs><path d="M512 234.666667c131.946667 0 252.245333 80.512 360.874667 241.536a64 64 0 0 1 2.410666 67.712l-2.410666 3.882666-6.058667 8.853334C759.786667 711.765333 641.493333 789.333333 512 789.333333c-131.946667 0-252.245333-80.512-360.874667-241.536a64 64 0 0 1-2.410666-67.712l2.410666-3.882666 6.058667-8.853334C264.213333 312.234667 382.506667 234.666667 512 234.666667z m0 64c-105.770667 0-206.037333 65.749333-301.952 204.757333L204.181333 512l5.888 8.597333C306.069333 659.648 406.314667 725.333333 512 725.333333c105.770667 0 206.037333-65.749333 301.952-204.757333l5.866667-8.576-5.888-8.597333C717.930667 364.352 617.685333 298.666667 512 298.666667z m0 77.482666a141.482667 141.482667 0 1 1 0 282.944 141.482667 141.482667 0 0 1 0-282.944z m0 64a77.482667 77.482667 0 1 0 0 154.944 77.482667 77.482667 0 0 0 0-154.944z" p-id="6451" fill="#8a8a8a"></path></svg>