<?xml version="1.0" standalone="no"?><!DOCTYPE svg PUBLIC "-//W3C//DTD SVG 1.1//EN" "http://www.w3.org/Graphics/SVG/1.1/DTD/svg11.dtd"><svg t="1610243895456" class="icon" viewBox="0 0 1024 1024" version="1.1" xmlns="http://www.w3.org/2000/svg" p-id="2572" xmlns:xlink="http://www.w3.org/1999/xlink" width="200" height="200"><defs><style type="text/css"></style></defs><path d="M608.64 503.296l-121.728 113.792-56.874667-56.874667a35.285333 35.285333 0 0 0-48.938666 0 31.317333 31.317333 0 0 0 0 46.08l81.365333 76.8a35.285333 35.285333 0 0 0 48.938667 0l146.218666-138.794666a31.274667 31.274667 0 0 0 0-46.08 35.285333 35.285333 0 0 0-48.938666 5.12z" fill="#1890FF" p-id="2573"></path><path d="M512 0a512 512 0 1 0 512 512A512 512 0 0 0 512 0zM392.533333 318.72a673.706667 673.706667 0 0 0 85.333334-67.84h67.84a570.88 570.88 0 0 0 85.333333 67.84v17.066667a33.706667 33.706667 0 0 1-34.133333 34.133333H426.666667a34.133333 34.133333 0 0 1-34.133334-34.133333z m341.333334 409.173333a33.706667 33.706667 0 0 1-33.706667 34.133334H323.84a34.133333 34.133333 0 0 1-34.133333-34.133334V352.853333a34.56 34.56 0 0 1 34.133333-34.133333H341.333333v51.2a34.133333 34.133333 0 0 0 34.133334 34.133333h273.066666a34.133333 34.133333 0 0 0 34.133334-34.133333v-51.2h17.066666a34.56 34.56 0 0 1 34.133334 34.133333z" fill="#1890FF" p-id="2574"></path><path d="M512 369.28a45.525333 45.525333 0 1 0-45.525333-45.525333A45.525333 45.525333 0 0 0 512 369.28z" fill="#1890FF" p-id="2575"></path></svg>