<?xml version="1.0" standalone="no"?><!DOCTYPE svg PUBLIC "-//W3C//DTD SVG 1.1//EN" "http://www.w3.org/Graphics/SVG/1.1/DTD/svg11.dtd"><svg t="1608777948406" class="icon" viewBox="0 0 1024 1024" version="1.1" xmlns="http://www.w3.org/2000/svg" p-id="4797" xmlns:xlink="http://www.w3.org/1999/xlink" width="64" height="64"><defs><style type="text/css"></style></defs><path d="M756.053333 895.146667H267.946667c-24.462222 0-44.278519-19.816296-44.278519-44.183704V375.371852c0-11.757037 9.576296-21.333333 21.333333-21.333333s21.333333 9.576296 21.333334 21.333333v475.591111c0 0.663704 0.758519 1.517037 1.611852 1.517037h488.106666c0.948148 0 1.611852-0.758519 1.611852-1.517037V375.371852c0-11.757037 9.576296-21.333333 21.333334-21.333333s21.333333 9.576296 21.333333 21.333333v475.591111c0 24.367407-19.816296 44.183704-44.278519 44.183704z" p-id="4798" fill="#8a8a8a"></path><path d="M192 370.820741c-10.145185 0-19.152593-7.300741-20.954074-17.635556-1.991111-11.567407 5.688889-22.660741 17.351111-24.651852l640-112.071111c11.567407-1.991111 22.660741 5.688889 24.651852 17.351111 1.991111 11.567407-5.688889 22.660741-17.351111 24.651852l-640 112.071111c-1.232593 0.18963-2.465185 0.284444-3.697778 0.284445z" p-id="4799" fill="#8a8a8a"></path><path d="M379.638519 337.635556c-20.954074 0-39.632593-14.980741-43.425186-36.314075l-13.748148-77.653333c-2.085926-11.472593 0.568889-23.134815 7.300741-32.805926 6.731852-9.671111 16.877037-16.118519 28.539259-18.109629l256.758519-44.942223c23.893333-4.171852 46.838519 11.757037 51.01037 35.650371l13.748148 77.653333c2.085926 11.472593-0.568889 23.134815-7.300741 32.805926-6.731852 9.671111-16.877037 16.118519-28.539259 18.10963l-256.758518 44.942222c-2.465185 0.474074-5.025185 0.663704-7.585185 0.663704z m242.725925-167.822223l-256.758518 44.942223c-0.379259 0.094815-0.663704 0.284444-0.948148 0.568888-0.284444 0.379259-0.284444 0.758519-0.18963 0.853334l13.748148 77.653333c0.094815 0.568889 0.853333 1.232593 1.706667 1.042963l256.758518-44.942222c0.379259-0.094815 0.663704-0.284444 0.948149-0.568889 0.284444-0.379259 0.284444-0.758519 0.189629-0.853333l-13.748148-77.653334c-0.094815-0.568889-0.853333-1.137778-1.706667-1.042963zM416.331852 709.12c-11.757037 0-21.333333-9.576296-21.333333-21.333333V461.084444c0-11.757037 9.576296-21.333333 21.333333-21.333333s21.333333 9.576296 21.333333 21.333333v226.702223c0 11.757037-9.576296 21.333333-21.333333 21.333333zM607.668148 709.12c-11.757037 0-21.333333-9.576296-21.333333-21.333333V461.084444c0-11.757037 9.576296-21.333333 21.333333-21.333333s21.333333 9.576296 21.333333 21.333333v226.702223c0 11.757037-9.481481 21.333333-21.333333 21.333333z" p-id="4800" fill="#8a8a8a"></path></svg>