<?xml version="1.0" standalone="no"?><!DOCTYPE svg PUBLIC "-//W3C//DTD SVG 1.1//EN" "http://www.w3.org/Graphics/SVG/1.1/DTD/svg11.dtd"><svg t="1608458673377" class="icon" viewBox="0 0 1024 1024" version="1.1" xmlns="http://www.w3.org/2000/svg" p-id="7426" xmlns:xlink="http://www.w3.org/1999/xlink" width="200" height="200"><defs><style type="text/css"></style></defs><path d="M872.128 665.6V600.96c0-61.76-50.24-112-112-112H563.2V358.4H460.8v130.56H263.872c-61.76 0-112 50.24-112 112v64.64h102.4V600.96a9.6 9.6 0 0 1 9.6-9.6h496.256a9.6 9.6 0 0 1 9.6 9.6v64.64h102.4z" fill="#bfbfbf" fill-opacity=".7" p-id="7427"></path><path d="M256 0m38.4 0l435.2 0q38.4 0 38.4 38.4l0 281.6q0 38.4-38.4 38.4l-435.2 0q-38.4 0-38.4-38.4l0-281.6q0-38.4 38.4-38.4Z" fill="#bfbfbf" p-id="7428"></path><path d="M0 665.6m38.4 0l384 0q38.4 0 38.4 38.4l0 281.6q0 38.4-38.4 38.4l-384 0q-38.4 0-38.4-38.4l0-281.6q0-38.4 38.4-38.4Z" fill="#bfbfbf" p-id="7429"></path><path d="M563.2 665.6m38.4 0l384 0q38.4 0 38.4 38.4l0 281.6q0 38.4-38.4 38.4l-384 0q-38.4 0-38.4-38.4l0-281.6q0-38.4 38.4-38.4Z" fill="#bfbfbf" p-id="7430"></path></svg>