<?xml version="1.0" standalone="no"?><!DOCTYPE svg PUBLIC "-//W3C//DTD SVG 1.1//EN" "http://www.w3.org/Graphics/SVG/1.1/DTD/svg11.dtd"><svg t="1631110819977" class="icon" viewBox="0 0 1024 1024" version="1.1" xmlns="http://www.w3.org/2000/svg" p-id="1856" xmlns:xlink="http://www.w3.org/1999/xlink" width="200" height="200"><defs><style type="text/css"></style></defs><path d="M582.6048 929.28H137.4208c-16.9472 0-30.72-13.7728-30.72-30.72s13.7728-30.72 30.72-30.72h445.2352c16.9472 0 30.72 13.7728 30.72 30.72s-13.824 30.72-30.7712 30.72zM724.5824 365.9776c-7.8848 0-15.7184-3.0208-21.7088-9.0112L462.4384 116.5312a30.72 30.72 0 0 1 0-43.4176 30.72 30.72 0 0 1 43.4176 0l240.4864 240.4864a30.72 30.72 0 0 1 0 43.4176 30.86848 30.86848 0 0 1-21.76 8.96zM333.8752 756.736c-7.8848 0-15.7184-3.0208-21.7088-9.0112L71.68 507.2896a30.72 30.72 0 0 1 0-43.4176 30.72 30.72 0 0 1 43.4176 0l240.4864 240.4864a30.72 30.72 0 0 1 0 43.4176 30.83776 30.83776 0 0 1-21.7088 8.96z" fill="#bfbfbf" p-id="1857"></path><path d="M296.2944 731.904L87.552 523.1616l434.2272-434.2272 208.7424 208.7424-434.2272 434.2272z m-121.9072-208.7936l121.856 121.856 347.2896-347.2896-121.856-121.856-347.2896 347.2896z" fill="#bfbfbf" p-id="1858"></path><path d="M826.4192 938.2912c-29.4912 0-57.2416-11.4688-78.08-32.3584l-356.5056-356.5056 156.16-156.16 356.5056 356.5056c20.8384 20.8384 32.3584 48.5888 32.3584 78.08s-11.4688 57.2416-32.3584 78.08c-20.8384 20.8384-48.5376 32.3584-78.08 32.3584zM478.72 549.4272l313.088 313.0368a48.60416 48.60416 0 0 0 34.6112 14.336c13.056 0 25.3952-5.12 34.6112-14.336a48.60416 48.60416 0 0 0 14.336-34.6112c0-13.1072-5.12-25.3952-14.336-34.6112l-313.0368-313.088-69.2736 69.2736z" fill="#bfbfbf" p-id="1859"></path></svg>