<?xml version="1.0" standalone="no"?><!DOCTYPE svg PUBLIC "-//W3C//DTD SVG 1.1//EN" "http://www.w3.org/Graphics/SVG/1.1/DTD/svg11.dtd"><svg t="1630979937035" class="icon" viewBox="0 0 1024 1024" version="1.1" xmlns="http://www.w3.org/2000/svg" p-id="8138" xmlns:xlink="http://www.w3.org/1999/xlink" width="200" height="200"><defs><style type="text/css"></style></defs><path d="M507.328 33.92a480 480 0 0 1 479.68 462.784l0.32 17.28v32h-64v-32a416 416 0 1 0-432.768 415.616l16.768 0.32h32v64h-32a480 480 0 0 1 0-960zM704 832v160h-64V832h64z m128-192v352h-64V640h64z m128 128v224h-64V768h64zM549.76 173.632l52.48 36.736L413.376 480h320.064l-259.2 370.368-52.48-36.736L610.56 544h-320L549.76 173.632z" fill="#bfbfbf" p-id="8139"></path></svg>