<?xml version="1.0" standalone="no"?><!DOCTYPE svg PUBLIC "-//W3C//DTD SVG 1.1//EN" "http://www.w3.org/Graphics/SVG/1.1/DTD/svg11.dtd"><svg t="1630980269523" class="icon" viewBox="0 0 1024 1024" version="1.1" xmlns="http://www.w3.org/2000/svg" p-id="14830" xmlns:xlink="http://www.w3.org/1999/xlink" width="200" height="200"><defs><style type="text/css"></style></defs><path d="M536.974222 475.989333a142.222222 142.222222 0 1 0 0-284.444444 142.222222 142.222222 0 0 0 0 284.444444z m0 56.888889a199.111111 199.111111 0 1 1 0-398.222222 199.111111 199.111111 0 0 1 0 398.222222zM306.517333 842.865778a113.777778 113.777778 0 1 0 0-227.555556 113.777778 113.777778 0 0 0 0 227.555556z m0 56.888889a170.666667 170.666667 0 1 1 0-341.333334 170.666667 170.666667 0 0 1 0 341.333334zM758.727111 835.470222a130.844444 130.844444 0 1 1 0-261.688889 130.844444 130.844444 0 0 1 0 261.688889z m0-56.888889a73.955556 73.955556 0 1 0 0-147.911111 73.955556 73.955556 0 0 0 0 147.911111z" p-id="14831" fill="#bfbfbf"></path><path d="M749.340444 618.268444l-48.810666 29.240889-89.258667-148.935111 48.810667-29.240889 89.258666 148.935111zM423.822222 470.584889l47.786667 30.776889-77.255111 120.035555-47.843556-30.776889 77.312-120.035555z" p-id="14832" fill="#bfbfbf"></path></svg>