<?xml version="1.0" standalone="no"?><!DOCTYPE svg PUBLIC "-//W3C//DTD SVG 1.1//EN" "http://www.w3.org/Graphics/SVG/1.1/DTD/svg11.dtd"><svg t="1608458642537" class="icon" viewBox="0 0 1036 1024" version="1.1" xmlns="http://www.w3.org/2000/svg" p-id="6562" xmlns:xlink="http://www.w3.org/1999/xlink" width="202.34375" height="200"><defs><style type="text/css"></style></defs><path d="M230.426656 470.589247h229.222896V241.366351a229.81828 229.81828 0 1 0-229.222896 229.222896z m0-369.733554a140.510658 140.510658 0 0 1 139.915274 140.510658v139.915274H230.426656a140.510658 140.510658 0 1 1 0-280.425932zM230.426656 1023.701117h55.370726a174.447554 174.447554 0 0 0 173.85217-174.447554V564.659941H230.426656a229.81828 229.81828 0 1 0 0 459.041176z m0-369.733554h139.915274v195.286a85.139933 85.139933 0 0 1-84.544548 85.139932h-55.370726a140.510658 140.510658 0 1 1 0-280.425932zM1012.761423 241.366351a229.81828 229.81828 0 1 0-459.041176 0v229.222896h229.222896A229.81828 229.81828 0 0 0 1012.761423 241.366351z m-369.733554 0a140.510658 140.510658 0 1 1 139.915274 139.915274h-139.915274zM727.572417 1023.701117h55.370726a229.81828 229.81828 0 1 0 0-459.041176H553.720247v284.593622A174.447554 174.447554 0 0 0 727.572417 1023.701117z m-84.544548-369.733554h139.915274a140.510658 140.510658 0 1 1 0 280.425932h-55.370726a85.139933 85.139933 0 0 1-84.544548-85.139932z" fill="#bfbfbf" p-id="6563"></path></svg>