<?xml version="1.0" standalone="no"?><!DOCTYPE svg PUBLIC "-//W3C//DTD SVG 1.1//EN" "http://www.w3.org/Graphics/SVG/1.1/DTD/svg11.dtd"><svg t="1630980143314" class="icon" viewBox="0 0 1024 1024" version="1.1" xmlns="http://www.w3.org/2000/svg" p-id="11081" xmlns:xlink="http://www.w3.org/1999/xlink" width="200" height="200"><defs><style type="text/css"></style></defs><path d="M608.744 108c45.458 0 83.912 30.015 96.659 71.323l70.179 0.002c57.084 0 103.482 45.813 104.404 102.694l0.014 1.727v591.832c0 57.102-45.827 103.486-102.692 104.408l-1.726 0.014H230.418c-57.084 0-103.482-45.813-104.404-102.695l-0.014-1.727V283.746c0-57.101 45.827-103.486 102.692-104.407l1.726-0.014 70.18-0.002c12.746-41.308 51.2-71.323 96.658-71.323z m96.658 131.147c-12.746 41.308-51.2 71.323-96.658 71.323H397.256c-45.458 0-83.912-30.015-96.658-71.323l-70.18-0.002c-24.405 0-44.224 19.554-44.643 43.817l-0.007 0.784v591.832c0 24.363 19.56 44.176 43.865 44.595l0.785 0.006h350.74v-2.3h59.769l-0.001 2.3h134.656c24.405 0 44.224-19.553 44.643-43.816l0.007-0.785V283.746c0-24.362-19.56-44.175-43.865-44.594l-0.785-0.007zM473.09 630.28c16.519 0 29.91 13.391 29.91 29.91s-13.391 29.91-29.91 29.91H337.514c-16.519 0-29.91-13.391-29.91-29.91s13.391-29.91 29.91-29.91H473.09z m195.396-144.95c16.519 0 29.91 13.391 29.91 29.91 0 16.52-13.391 29.91-29.91 29.91H337.514c-16.519 0-29.91-13.39-29.91-29.91 0-16.519 13.391-29.91 29.91-29.91h330.972z m-59.742-317.51H397.256c-22.852 0-41.378 18.542-41.378 41.415 0 22.872 18.526 41.414 41.378 41.414h211.488c22.852 0 41.378-18.542 41.378-41.414 0-22.873-18.526-41.414-41.378-41.414z" fill="#bfbfbf" p-id="11082"></path></svg>