<?xml version="1.0" standalone="no"?><!DOCTYPE svg PUBLIC "-//W3C//DTD SVG 1.1//EN" "http://www.w3.org/Graphics/SVG/1.1/DTD/svg11.dtd"><svg t="1608458738709" class="icon" viewBox="0 0 1024 1024" version="1.1" xmlns="http://www.w3.org/2000/svg" p-id="8309" xmlns:xlink="http://www.w3.org/1999/xlink" width="200" height="200"><defs><style type="text/css"></style></defs><path d="M950.848 408.128l-79.936-36.096a130.112 130.112 0 0 1-75.52-133.76l10.176-87.232a444.672 444.672 0 0 0-142.976-84.416l-72 51.264a130.112 130.112 0 0 1-153.792-1.408L367.04 64a447.296 447.296 0 0 0-144.448 81.792l8.704 87.168a129.92 129.92 0 0 1-77.44 132.608l-81.28 34.688a447.104 447.104 0 0 0-1.472 165.888l79.936 36.224a130.112 130.112 0 0 1 75.712 133.76l-10.368 86.784a449.152 449.152 0 0 0 142.976 84.544l71.424-51.2a130.112 130.112 0 0 1 153.792 1.344l70.272 52.48a445.76 445.76 0 0 0 144.512-81.728l-8.64-87.36c-5.632-56.32 25.6-109.76 77.44-132.48l80.64-34.624c10.88-54.784 11.392-111.104 1.408-166.08l0.64 0.32z m-439.872 302.528a223.488 223.488 0 1 1 0-447.04 223.488 223.488 0 0 1 0 447.04z" p-id="8310" fill="#bfbfbf"></path><path d="M510.976 328.832a158.464 158.464 0 1 0 0 316.928 158.464 158.464 0 0 0 0-316.928z m0 246.72a88.448 88.448 0 0 1 0-176.704 92.928 92.928 0 0 1 88.32 88.32 88.448 88.448 0 0 1-88.32 87.936v0.448z" p-id="8311" fill="#bfbfbf"></path></svg>