<?xml version="1.0" standalone="no"?><!DOCTYPE svg PUBLIC "-//W3C//DTD SVG 1.1//EN" "http://www.w3.org/Graphics/SVG/1.1/DTD/svg11.dtd"><svg t="1630979122052" class="icon" viewBox="0 0 1024 1024" version="1.1" xmlns="http://www.w3.org/2000/svg" p-id="1491" xmlns:xlink="http://www.w3.org/1999/xlink" width="200" height="200"><defs><style type="text/css"></style></defs><path d="M906.666667 465.066667a32 32 0 0 0 32-32A347.733333 347.733333 0 0 0 590.933333 85.333333a32 32 0 0 0-32 32v273.066667c0 41.258667 33.450667 74.666667 74.666667 74.666667h273.066667z m-53.589334-140.586667c10.154667 24.533333 16.810667 50.346667 19.797334 76.586667H633.6a10.666667 10.666667 0 0 1-10.666667-10.666667V151.125333a283.733333 283.733333 0 0 1 230.144 173.354667zM512 85.333333a426.666667 426.666667 0 1 0 426.666667 426.666667 32 32 0 0 0-32-32H597.333333c-29.44 0-53.333333-23.893333-53.333333-53.333333V117.333333A32 32 0 0 0 512 85.333333zM310.528 210.474667a362.666667 362.666667 0 0 1 169.472-59.733334V426.666667A117.333333 117.333333 0 0 0 597.333333 544h275.925334A362.624 362.624 0 0 1 255.573333 768.426667 362.666667 362.666667 0 0 1 310.528 210.517333z" p-id="1492"></path></svg>