<?xml version="1.0" standalone="no"?><!DOCTYPE svg PUBLIC "-//W3C//DTD SVG 1.1//EN" "http://www.w3.org/Graphics/SVG/1.1/DTD/svg11.dtd"><svg t="1608458536929" class="icon" viewBox="0 0 1024 1024" version="1.1" xmlns="http://www.w3.org/2000/svg" p-id="5672" xmlns:xlink="http://www.w3.org/1999/xlink" width="200" height="200"><defs><style type="text/css"></style></defs><path d="M704 192a64 64 0 0 1 64 64v672l-319.232-128L128 928V256a64 64 0 0 1 64-64h512zM304 560.832a48 48 0 1 0 0 96 48 48 0 0 0 0-96zM640 576h-224v64h224v-64zM306.176 400.128a48 48 0 1 0 0 96 48 48 0 0 0 0-96zM640 416h-224v64h224v-64z" p-id="5673" fill="#bfbfbf"></path><path d="M832 96a31.904 31.904 0 0 1 32 32v624.704l-64-25.664V256a95.68 95.68 0 0 0-25.6-65.28 95.776 95.776 0 0 0-64.544-30.56L288 160V128a31.904 31.904 0 0 1 32-32z" p-id="5674" fill="#bfbfbf"></path></svg>