<?xml version="1.0" standalone="no"?><!DOCTYPE svg PUBLIC "-//W3C//DTD SVG 1.1//EN" "http://www.w3.org/Graphics/SVG/1.1/DTD/svg11.dtd"><svg t="1610010275058" class="icon" viewBox="0 0 1024 1024" version="1.1" xmlns="http://www.w3.org/2000/svg" p-id="4429" xmlns:xlink="http://www.w3.org/1999/xlink" width="200" height="200"><defs><style type="text/css"></style></defs><path d="M992 162.56H584.32a31.36 31.36 0 0 1-28.16-17.28l-99.2-128A32 32 0 0 0 428.8 0H32a32 32 0 0 0-32 32v960a32 32 0 0 0 32 32h960a32 32 0 0 0 32-32V192a32 32 0 0 0-32-29.44zM890.88 320H141.44a32 32 0 0 1-32-32 32 32 0 0 1 32-32h749.44a32.64 32.64 0 0 1 32 32 32 32 0 0 1-32 32z" p-id="4430" fill="#e6e6e6"></path></svg>