<?xml version="1.0" standalone="no"?><!DOCTYPE svg PUBLIC "-//W3C//DTD SVG 1.1//EN" "http://www.w3.org/Graphics/SVG/1.1/DTD/svg11.dtd"><svg t="1608776774313" class="icon" viewBox="0 0 1024 1024" version="1.1" xmlns="http://www.w3.org/2000/svg" p-id="3930" xmlns:xlink="http://www.w3.org/1999/xlink" width="64" height="64"><defs><style type="text/css"></style></defs><path d="M488.576 426.026667L357.717333 556.8h-58.453333l145.493333-145.408A150.058667 150.058667 0 0 1 513.834667 128a150.186667 150.186667 0 0 1 69.077333 283.392l145.493333 145.408h-58.453333l-130.858667-130.773333a151.338667 151.338667 0 0 1-50.517333 0zM274.901333 853.333333A104.149333 104.149333 0 0 1 170.666667 749.226667V661.333333a104.149333 104.149333 0 0 1 104.234666-104.106666h474.197334A104.405333 104.405333 0 0 1 853.333333 661.333333v87.893334A104.149333 104.149333 0 0 1 749.098667 853.333333H274.901333z m-0.426666-246.997333c-35.925333 0-58.197333 19.072-58.197334 54.997333v88.32c0 35.84 22.272 57.770667 58.197334 57.770667h474.624c35.968 0 58.453333-21.888 58.453333-57.813333V661.333333c0-35.925333-22.485333-54.997333-58.453333-54.997333H274.474667z m239.36-221.354667a105.088 105.088 0 1 0-105.173334-105.045333 105.088 105.088 0 0 0 105.173334 105.045333z" fill="#8a8a8a" p-id="3931"></path></svg>